<svg id="svg" version="1.1" xmlns="http://www.w3.org/2000/svg" xmlns:xlink="http://www.w3.org/1999/xlink" width="400" height="361.2121212121212" viewBox="0, 0, 400,361.2121212121212"><g id="svgg"><path id="path0" d="M396.658 0.390 C 396.074 0.730,396.025 1.764,396.025 13.860 C 396.025 28.030,396.114 28.742,397.770 27.856 C 398.553 27.437,398.555 27.415,398.555 14.152 C 398.555 -0.308,398.503 -0.684,396.658 0.390 M166.055 0.994 C 37.408 1.066,4.501 1.177,4.272 1.536 C 3.884 2.147,3.894 94.578,4.282 94.818 C 4.451 94.922,26.841 95.024,54.037 95.044 C 107.118 95.084,105.216 95.019,106.499 96.850 C 106.928 97.463,107.001 112.985,106.986 200.637 C 106.976 257.324,107.097 303.908,107.255 304.157 C 107.483 304.517,117.566 304.591,156.472 304.518 L 205.401 304.426 205.411 202.349 C 205.421 94.327,205.345 99.194,207.020 98.298 C 207.470 98.057,234.621 97.928,287.350 97.916 L 367.001 97.898 368.315 99.101 L 369.629 100.305 369.658 118.684 C 369.682 134.016,369.602 137.147,369.179 137.571 C 367.942 138.808,364.993 138.880,310.517 139.001 L 256.626 139.122 256.386 144.990 C 256.173 150.203,256.138 153.148,256.228 158.085 C 256.464 170.968,256.428 331.144,256.189 332.069 C 256.009 332.764,255.780 333.740,255.680 334.237 L 255.497 335.140 216.908 335.140 L 178.320 335.140 178.320 346.883 L 178.320 358.627 209.214 358.744 C 226.206 358.809,248.767 358.749,259.350 358.611 L 278.591 358.360 278.596 262.739 C 278.598 210.148,278.691 166.781,278.802 166.369 C 279.230 164.776,278.519 164.795,338.908 164.778 C 370.591 164.770,396.526 164.723,396.541 164.676 C 396.555 164.628,396.523 143.491,396.468 117.706 L 396.368 70.822 287.796 70.822 L 179.223 70.822 179.206 78.320 C 179.196 82.444,179.193 129.413,179.198 182.697 C 179.208 279.400,179.207 279.578,178.479 280.236 C 177.659 280.978,171.984 281.468,171.178 280.867 C 170.932 280.684,169.593 280.585,168.202 280.646 C 166.811 280.707,158.736 280.842,150.257 280.945 C 134.372 281.139,133.396 281.071,132.721 279.716 C 132.561 279.395,132.349 232.470,132.249 175.437 L 132.069 71.741 119.241 71.771 C 50.950 71.935,29.280 71.891,28.512 71.585 C 26.919 70.952,25.655 69.441,25.655 68.170 C 25.655 67.522,25.510 66.837,25.333 66.649 C 25.144 66.447,25.145 63.462,25.335 59.440 C 25.514 55.664,25.618 46.780,25.567 39.698 L 25.474 26.821 26.378 26.069 C 27.340 25.268,30.123 24.991,30.533 25.655 C 30.844 26.158,36.134 26.128,36.134 25.623 C 36.134 25.356,36.862 25.305,38.392 25.463 C 42.679 25.906,62.956 26.083,62.704 25.674 C 62.545 25.417,63.696 25.294,66.263 25.294 C 68.402 25.294,70.154 25.451,70.280 25.655 C 70.709 26.350,295.206 26.133,296.874 25.436 C 298.381 24.806,301.412 24.923,301.644 25.619 C 301.722 25.853,302.738 26.016,304.116 26.016 C 305.584 26.016,306.373 25.882,306.233 25.655 C 306.110 25.456,306.182 25.294,306.392 25.294 C 306.603 25.294,306.775 25.460,306.775 25.664 C 306.775 25.909,310.307 26.025,317.216 26.005 L 327.657 25.976 328.019 24.461 C 328.603 22.017,328.609 1.210,328.025 1.041 C 327.765 0.965,254.878 0.944,166.055 0.994 M386.269 12.647 C 386.269 20.114,386.397 24.210,386.631 24.210 C 386.864 24.210,386.992 20.114,386.992 12.647 C 386.992 5.179,386.864 1.084,386.631 1.084 C 386.397 1.084,386.269 5.179,386.269 12.647 M382.927 1.656 C 382.778 1.805,382.656 7.126,382.656 13.480 C 382.656 23.919,382.597 25.076,382.044 25.481 C 381.469 25.901,381.469 25.965,382.044 26.540 C 382.380 26.877,382.656 27.384,382.656 27.668 C 382.656 28.070,383.194 28.171,385.095 28.125 L 387.534 28.066 385.547 27.823 L 383.559 27.579 385.479 27.521 L 387.399 27.462 387.286 26.287 C 387.175 25.134,387.140 25.113,385.366 25.113 L 383.559 25.113 383.379 13.249 C 383.279 6.723,383.076 1.506,382.927 1.656 M135.905 279.476 C 136.165 279.737,174.874 279.809,175.133 279.549 C 175.263 279.419,166.453 279.313,155.556 279.313 C 144.658 279.313,135.815 279.387,135.905 279.476 M105.639 333.056 C 105.956 333.584,105.954 357.986,105.637 359.969 C 105.458 361.087,105.527 361.337,106.013 361.337 C 106.925 361.337,106.880 333.833,105.968 333.094 C 105.559 332.763,105.456 332.751,105.639 333.056 M121.646 335.486 C 121.395 336.139,117.796 336.302,117.796 335.661 C 117.796 335.450,117.633 335.379,117.435 335.501 C 117.206 335.643,117.073 339.901,117.073 347.085 C 117.073 354.418,117.201 358.446,117.435 358.446 C 117.667 358.446,117.796 354.548,117.796 347.473 L 117.796 336.500 119.693 336.543 L 121.590 336.585 121.685 347.696 C 121.768 357.287,121.855 358.808,122.323 358.808 C 123.021 358.808,122.965 335.297,122.267 335.064 C 122.043 334.990,121.763 335.180,121.646 335.486 " stroke="none" fill="#8c535c" fill-rule="evenodd"></path><path id="path1" d="M3.324 0.434 C 2.679 1.079,2.696 94.997,3.342 95.855 C 3.759 96.409,7.708 96.464,54.235 96.557 C 96.348 96.641,104.776 96.740,105.274 97.154 C 105.827 97.613,105.872 105.322,105.872 201.116 C 105.872 303.040,105.882 304.587,106.571 304.956 C 107.676 305.547,205.469 305.471,205.843 304.878 C 205.999 304.630,206.073 258.879,206.006 203.210 C 205.914 125.617,205.985 101.806,206.314 101.192 C 207.168 99.596,208.445 99.408,217.178 99.592 C 221.642 99.686,225.578 99.821,225.926 99.893 C 226.274 99.964,226.484 99.902,226.393 99.754 C 226.135 99.337,267.083 99.005,318.880 99.005 C 370.990 99.004,367.795 98.859,368.387 101.253 C 368.947 103.520,368.388 136.193,367.779 136.803 C 366.278 138.303,364.405 138.353,308.874 138.373 C 276.251 138.385,255.789 138.522,255.660 138.731 C 255.544 138.918,255.455 176.532,255.461 222.318 C 255.468 276.755,255.347 305.931,255.111 306.622 C 254.905 307.225,254.710 313.257,254.656 320.687 L 254.562 333.695 216.441 333.786 L 178.320 333.878 177.687 334.639 C 176.917 335.567,176.724 356.809,177.459 359.732 L 177.864 361.337 228.369 361.337 C 276.111 361.337,278.892 361.302,279.184 360.705 C 279.355 360.357,279.534 316.658,279.582 263.595 L 279.669 167.118 280.424 166.494 C 281.132 165.909,284.767 165.870,338.864 165.858 C 390.059 165.847,396.612 165.784,397.100 165.295 C 397.588 164.808,397.659 159.370,397.716 118.235 C 397.783 69.498,397.805 70.677,396.825 70.272 C 395.417 69.689,179.815 69.638,179.042 70.220 C 178.323 70.761,178.319 71.241,178.226 174.734 C 178.163 245.796,178.014 278.848,177.759 279.156 C 177.224 279.801,174.797 279.850,150.252 279.718 C 136.315 279.642,134.415 279.565,133.992 279.056 C 133.566 278.543,133.342 207.996,133.333 71.828 C 133.333 70.724,131.664 70.691,80.578 70.764 C 39.205 70.823,29.277 70.748,28.546 70.368 C 26.566 69.338,26.567 69.353,26.451 48.580 L 26.343 29.410 27.135 28.402 C 27.913 27.413,27.992 27.396,31.398 27.471 C 33.307 27.513,100.926 27.528,181.662 27.504 L 328.455 27.462 328.418 25.384 C 328.381 23.335,328.376 23.325,328.025 24.641 L 327.670 25.976 317.223 26.005 C 310.309 26.025,306.775 25.909,306.775 25.664 C 306.775 25.460,306.603 25.294,306.392 25.294 C 306.182 25.294,306.110 25.456,306.233 25.655 C 306.373 25.882,305.584 26.016,304.116 26.016 C 302.738 26.016,301.722 25.853,301.644 25.619 C 301.412 24.923,298.381 24.806,296.874 25.436 C 295.206 26.133,70.709 26.350,70.280 25.655 C 70.154 25.451,68.402 25.294,66.263 25.294 C 63.696 25.294,62.545 25.417,62.704 25.674 C 62.956 26.083,42.679 25.906,38.392 25.463 C 36.862 25.305,36.134 25.356,36.134 25.623 C 36.134 26.128,30.844 26.158,30.533 25.655 C 30.123 24.991,27.340 25.268,26.378 26.069 L 25.474 26.821 25.567 39.698 C 25.618 46.780,25.514 55.664,25.335 59.440 C 25.145 63.462,25.144 66.447,25.333 66.649 C 25.510 66.837,25.655 67.522,25.655 68.170 C 25.655 69.441,26.919 70.952,28.512 71.585 C 29.280 71.891,50.950 71.935,119.241 71.771 L 132.069 71.741 132.249 175.437 C 132.349 232.470,132.561 279.395,132.721 279.716 C 133.396 281.071,134.372 281.139,150.257 280.945 C 158.736 280.842,166.811 280.707,168.202 280.646 C 169.593 280.585,170.932 280.684,171.178 280.867 C 171.984 281.468,177.659 280.978,178.479 280.236 C 179.207 279.578,179.208 279.400,179.198 182.697 C 179.193 129.413,179.196 82.444,179.206 78.320 L 179.223 70.822 287.796 70.822 L 396.368 70.822 396.468 117.706 C 396.523 143.491,396.555 164.628,396.541 164.676 C 396.526 164.723,370.591 164.770,338.908 164.778 C 278.519 164.795,279.230 164.776,278.802 166.369 C 278.691 166.781,278.598 210.148,278.596 262.739 L 278.591 358.360 259.350 358.611 C 248.767 358.749,226.206 358.809,209.214 358.744 L 178.320 358.627 178.320 346.883 L 178.320 335.140 216.908 335.140 L 255.497 335.140 255.680 334.237 C 255.780 333.740,256.009 332.764,256.189 332.069 C 256.428 331.144,256.464 170.968,256.228 158.085 C 256.138 153.148,256.173 150.203,256.386 144.990 L 256.626 139.122 310.517 139.001 C 364.993 138.880,367.942 138.808,369.179 137.571 C 369.602 137.147,369.682 134.016,369.658 118.684 L 369.629 100.305 368.315 99.101 L 367.001 97.898 287.350 97.916 C 234.621 97.928,207.470 98.057,207.020 98.298 C 205.345 99.194,205.421 94.327,205.411 202.349 L 205.401 304.426 156.472 304.518 C 117.566 304.591,107.483 304.517,107.255 304.157 C 107.097 303.908,106.976 257.324,106.986 200.637 C 107.001 112.985,106.928 97.463,106.499 96.850 C 105.216 95.019,107.118 95.084,54.037 95.044 C 26.841 95.024,4.451 94.922,4.282 94.818 C 3.894 94.578,3.884 2.147,4.272 1.536 C 4.500 1.177,37.495 1.085,166.507 1.083 C 310.008 1.081,328.455 1.019,328.455 0.540 C 328.455 -0.187,4.052 -0.294,3.324 0.434 M106.388 332.763 C 106.966 333.401,107.006 334.564,106.895 347.397 C 106.829 355.064,106.897 361.337,107.046 361.337 C 107.195 361.337,107.312 355.036,107.306 347.335 C 107.294 333.342,107.189 332.069,106.047 332.069 C 105.889 332.069,106.042 332.381,106.388 332.763 " stroke="none" fill="#804a5a" fill-rule="evenodd"></path><path id="path2" d="M0.000 49.503 L 0.000 99.006 51.491 99.006 L 102.981 99.006 102.981 202.374 C 102.981 291.594,103.052 305.814,103.498 306.260 C 103.944 306.705,111.235 306.765,155.621 306.686 L 207.227 306.594 207.318 203.523 L 207.409 100.452 231.003 100.452 C 246.351 100.452,254.725 100.579,254.962 100.815 C 255.203 101.057,273.842 101.148,310.499 101.086 L 365.673 100.994 365.673 118.608 L 365.673 136.222 309.937 136.313 L 254.201 136.405 254.109 221.300 C 254.059 267.992,254.141 306.318,254.290 306.467 C 254.440 306.617,254.521 268.857,254.470 222.557 L 254.378 138.375 255.307 138.022 C 255.895 137.798,275.615 137.669,309.239 137.669 C 366.502 137.669,366.336 137.675,367.539 135.779 C 368.178 134.772,367.896 101.308,367.244 100.767 C 366.742 100.351,353.850 100.256,286.846 100.177 L 207.046 100.082 207.046 202.469 L 207.046 304.856 206.285 305.545 C 205.546 306.214,204.131 306.235,155.834 306.315 L 106.142 306.396 105.465 305.535 C 104.806 304.698,104.788 301.823,104.782 201.569 C 104.779 144.861,104.649 98.263,104.492 98.016 C 104.269 97.664,93.403 97.548,53.701 97.474 C 4.178 97.382,3.184 97.367,2.681 96.679 C 2.244 96.081,2.168 88.863,2.168 47.989 L 2.168 0.000 1.084 0.000 L 0.000 0.000 0.000 49.503 M332.516 14.002 L 332.611 28.004 343.360 28.099 L 354.110 28.195 354.110 14.098 L 354.110 0.000 352.982 0.000 C 352.069 0.000,351.932 0.094,352.264 0.494 C 352.557 0.848,352.647 4.732,352.579 14.135 L 352.484 27.281 343.883 27.378 C 336.767 27.458,335.192 27.385,334.759 26.952 C 334.323 26.515,334.237 24.311,334.237 13.586 L 334.237 0.743 335.411 0.404 C 336.491 0.093,336.417 0.063,334.503 0.033 L 332.422 -0.000 332.516 14.002 M372.895 13.098 C 372.892 20.303,372.792 26.563,372.672 27.010 C 372.411 27.982,361.272 28.307,360.280 27.371 C 359.894 27.007,359.833 27.024,359.967 27.462 C 360.104 27.913,361.254 28.020,366.877 28.102 L 373.622 28.200 373.622 14.100 C 373.622 4.941,373.496 0.000,373.261 0.000 C 373.027 0.000,372.898 4.610,372.895 13.098 M388.799 13.521 C 388.799 20.957,388.700 27.298,388.579 27.613 C 388.435 27.988,388.560 28.184,388.941 28.184 C 389.464 28.184,389.521 26.795,389.521 14.092 C 389.521 4.938,389.395 0.000,389.160 0.000 C 388.925 0.000,388.799 4.748,388.799 13.521 M27.940 28.690 L 26.932 29.557 26.926 47.750 C 26.919 67.540,26.984 68.236,28.941 69.314 C 29.656 69.708,38.752 69.758,80.171 69.598 C 134.166 69.390,131.833 69.322,133.663 71.152 L 134.417 71.906 134.417 175.012 C 134.417 274.440,134.441 278.139,135.078 278.715 C 136.121 279.659,175.522 279.627,176.637 278.681 L 177.382 278.049 177.494 174.345 C 177.584 91.231,177.698 70.480,178.066 69.828 L 178.526 69.015 288.106 69.015 L 397.687 69.015 398.121 70.215 C 398.921 72.428,398.729 164.839,397.922 165.818 L 397.290 166.585 339.404 166.671 C 300.018 166.729,281.398 166.877,281.143 167.132 C 280.886 167.388,280.738 198.101,280.673 264.422 L 280.578 361.337 281.572 361.337 L 282.565 361.337 282.565 264.860 L 282.565 168.383 341.283 168.383 L 400.000 168.383 400.000 118.519 L 400.000 68.654 287.977 68.654 L 175.953 68.654 175.601 69.581 C 175.375 70.175,175.248 107.886,175.248 174.730 L 175.248 278.952 155.556 278.952 L 135.863 278.952 135.863 173.803 L 135.863 68.654 82.565 68.654 L 29.268 68.654 29.268 48.420 L 29.268 28.185 178.952 28.094 L 328.636 28.003 178.792 27.913 L 28.947 27.823 27.940 28.690 M103.794 332.080 L 102.981 332.407 102.981 346.932 C 102.981 354.921,103.054 361.384,103.144 361.295 C 103.233 361.206,103.332 354.736,103.363 346.918 C 103.418 333.304,103.449 332.696,104.104 332.524 C 104.480 332.426,104.788 332.202,104.788 332.027 C 104.788 331.851,104.747 331.718,104.697 331.730 C 104.648 331.743,104.241 331.900,103.794 332.080 M105.601 331.956 C 105.949 332.047,106.518 332.047,106.865 331.956 C 107.213 331.866,106.929 331.791,106.233 331.791 C 105.537 331.791,105.253 331.866,105.601 331.956 M114.562 332.396 C 114.315 332.857,114.182 338.045,114.182 347.221 L 114.182 361.337 114.995 361.337 L 115.808 361.337 115.691 348.961 C 115.572 336.330,115.679 334.152,116.475 333.093 C 117.225 332.096,123.417 331.995,123.919 332.972 C 124.262 333.639,124.284 333.625,124.205 332.791 L 124.119 331.888 119.531 331.787 C 115.284 331.694,114.914 331.739,114.562 332.396 M131.599 332.141 C 130.957 332.783,130.975 361.337,131.617 361.337 C 131.970 361.337,132.069 358.404,132.069 347.877 C 132.069 334.986,132.099 334.376,132.791 333.435 L 133.514 332.453 139.764 332.441 L 146.015 332.430 146.921 333.407 L 147.826 334.385 147.716 347.861 L 147.606 361.337 148.419 361.337 L 149.232 361.337 149.232 347.425 L 149.232 333.514 151.039 333.514 L 152.846 333.514 152.846 347.425 L 152.846 361.337 154.020 361.337 L 155.194 361.337 155.089 348.781 C 155.031 341.875,155.075 335.858,155.186 335.411 L 155.389 334.598 163.680 334.598 C 171.507 334.598,171.992 334.637,172.345 335.297 C 172.747 336.048,172.890 357.941,172.500 358.959 C 172.310 359.454,171.297 359.530,164.899 359.530 C 157.497 359.530,155.736 359.816,155.736 361.017 C 155.736 361.195,160.074 361.337,165.492 361.337 L 175.248 361.337 175.248 346.741 C 175.248 333.766,175.185 332.122,174.677 331.927 C 173.501 331.475,132.058 331.681,131.599 332.141 M177.127 332.141 C 176.802 332.467,176.715 336.177,176.778 347.046 L 176.862 361.518 177.049 347.645 C 177.209 335.793,177.315 333.736,177.778 333.519 C 178.076 333.379,178.683 333.077,179.128 332.847 C 180.189 332.299,238.686 332.244,239.024 332.791 C 239.495 333.553,252.638 333.228,253.659 332.430 C 254.557 331.727,254.338 331.723,216.061 331.715 C 186.589 331.709,177.459 331.809,177.127 332.141 M107.843 346.883 C 107.843 354.932,107.891 358.225,107.949 354.201 C 108.007 350.176,108.007 343.591,107.949 339.566 C 107.891 335.542,107.843 338.835,107.843 346.883 " stroke="none" fill="#612f43" fill-rule="evenodd"></path><path id="path3" d="M359.892 13.478 C 359.892 23.479,360.003 27.068,360.325 27.389 C 360.625 27.689,362.471 27.823,366.296 27.823 L 371.834 27.823 372.186 26.896 C 372.567 25.894,372.690 1.538,372.319 0.572 C 372.131 0.082,371.228 0.000,365.996 0.000 L 359.892 0.000 359.892 13.478 M380.488 13.873 C 380.488 26.190,380.552 27.770,381.059 27.965 C 382.626 28.566,383.216 27.712,382.044 26.540 C 381.469 25.965,381.469 25.901,382.044 25.481 C 382.597 25.076,382.656 23.917,382.656 13.441 C 382.656 6.211,382.790 1.766,383.012 1.629 C 383.243 1.486,383.402 5.586,383.464 13.261 L 383.559 25.113 385.366 25.113 C 387.140 25.113,387.175 25.134,387.286 26.287 L 387.399 27.462 385.509 27.462 C 383.035 27.462,383.347 27.676,386.179 27.920 L 388.437 28.116 388.437 14.058 L 388.437 0.000 384.463 0.000 L 380.488 0.000 380.488 13.873 M395.303 13.659 C 395.303 23.800,395.414 27.429,395.736 27.751 C 396.409 28.424,396.815 28.262,396.399 27.485 C 395.668 26.118,395.909 0.827,396.658 0.390 C 397.198 0.075,397.146 0.020,396.296 0.011 L 395.303 0.000 395.303 13.659 M398.121 0.434 C 398.914 1.227,398.724 27.327,397.922 27.794 C 397.347 28.129,397.345 28.163,397.897 28.173 C 399.599 28.204,399.639 27.880,399.639 14.096 C 399.639 0.313,399.612 0.000,398.444 0.000 C 397.856 0.000,397.784 0.096,398.121 0.434 M335.345 13.036 C 335.397 22.816,335.499 25.023,335.907 25.180 C 336.181 25.285,336.405 25.526,336.405 25.715 C 336.405 25.904,336.242 25.958,336.043 25.836 C 335.845 25.713,335.682 25.784,335.682 25.995 C 335.682 26.901,351.831 26.477,352.076 25.565 C 352.196 25.117,352.296 19.426,352.299 12.918 L 352.304 1.084 343.793 1.084 L 335.282 1.084 335.345 13.036 M386.992 12.647 C 386.992 20.114,386.864 24.210,386.631 24.210 C 386.397 24.210,386.269 20.114,386.269 12.647 C 386.269 5.179,386.397 1.084,386.631 1.084 C 386.864 1.084,386.992 5.179,386.992 12.647 M104.788 331.985 C 104.788 332.183,104.422 332.463,103.975 332.607 C 103.259 332.837,103.240 332.889,103.821 333.042 C 104.296 333.167,104.397 333.383,104.182 333.817 C 104.018 334.147,103.840 340.474,103.786 347.877 L 103.687 361.337 104.552 361.337 C 105.275 361.337,105.454 361.111,105.637 359.969 C 105.954 357.986,105.956 333.584,105.639 333.056 C 105.455 332.749,105.557 332.761,105.966 333.092 C 106.496 333.522,106.563 334.929,106.585 346.078 C 106.599 352.955,106.692 358.664,106.791 358.764 C 106.891 358.863,106.961 353.034,106.947 345.810 C 106.926 335.412,107.019 332.613,107.390 332.377 C 107.720 332.168,107.731 332.078,107.429 332.074 C 107.192 332.071,106.899 332.229,106.778 332.426 C 106.642 332.645,106.215 332.559,105.672 332.204 C 105.186 331.885,104.788 331.787,104.788 331.985 M119.668 332.824 C 116.012 333.182,116.189 332.595,116.051 344.818 C 115.986 350.624,116.042 356.716,116.174 358.356 L 116.415 361.337 120.358 361.337 L 124.300 361.337 124.300 347.465 L 124.300 333.592 123.310 333.344 C 122.765 333.207,122.237 332.984,122.136 332.848 C 122.034 332.712,120.924 332.701,119.668 332.824 M132.941 334.295 C 132.503 335.114,132.427 357.256,132.853 359.982 L 133.064 361.337 139.982 361.337 L 146.900 361.337 147.343 359.429 C 148.023 356.504,147.958 336.430,147.263 334.767 L 146.740 333.514 140.049 333.514 C 133.562 333.514,133.346 333.538,132.941 334.295 M122.769 347.004 C 122.852 357.295,122.795 358.808,122.323 358.808 C 121.855 358.808,121.768 357.287,121.685 347.696 L 121.590 336.585 119.693 336.543 L 117.796 336.500 117.796 347.473 C 117.796 354.548,117.667 358.446,117.435 358.446 C 117.201 358.446,117.073 354.418,117.073 347.085 C 117.073 339.901,117.206 335.643,117.435 335.501 C 117.633 335.379,117.796 335.450,117.796 335.661 C 117.796 336.302,121.395 336.139,121.646 335.486 C 122.446 333.400,122.679 335.784,122.769 347.004 M155.736 346.883 L 155.736 358.460 163.776 358.363 L 171.816 358.266 171.816 346.883 L 171.816 335.501 163.776 335.404 L 155.736 335.307 155.736 346.883 " stroke="none" fill="#872854" fill-rule="evenodd"></path><path id="path4" d="M2.168 47.989 C 2.168 88.863,2.244 96.081,2.681 96.679 C 3.184 97.367,4.178 97.382,53.701 97.474 C 93.403 97.548,104.269 97.664,104.492 98.016 C 104.649 98.263,104.779 144.861,104.782 201.569 C 104.788 301.823,104.806 304.698,105.465 305.535 L 106.142 306.396 155.834 306.315 C 204.131 306.235,205.546 306.214,206.285 305.545 L 207.046 304.856 207.035 202.564 C 207.024 110.121,206.969 100.341,206.463 100.994 C 205.960 101.643,205.915 111.988,206.015 203.071 C 206.077 258.817,205.999 304.630,205.843 304.878 C 205.469 305.471,107.676 305.547,106.571 304.956 C 105.882 304.587,105.872 303.040,105.872 201.116 C 105.872 105.322,105.827 97.613,105.274 97.154 C 104.776 96.740,96.348 96.641,54.235 96.557 C 7.708 96.464,3.759 96.409,3.342 95.855 C 2.696 94.997,2.679 1.079,3.324 0.434 C 3.662 0.096,3.581 0.000,2.963 0.000 L 2.168 0.000 2.168 47.989 M335.411 0.404 L 334.237 0.743 334.237 13.586 C 334.237 24.311,334.323 26.515,334.759 26.952 C 335.192 27.385,336.767 27.458,343.883 27.378 L 352.484 27.281 352.579 14.135 C 352.647 4.732,352.557 0.848,352.264 0.494 C 351.776 -0.093,337.400 -0.170,335.411 0.404 M372.461 12.890 C 372.524 20.708,372.425 26.183,372.209 26.802 C 372.013 27.364,371.988 27.823,372.154 27.823 C 372.319 27.823,372.552 27.457,372.672 27.010 C 372.990 25.822,372.949 0.000,372.629 -0.000 C 372.480 -0.000,372.404 5.800,372.461 12.890 M388.601 13.731 C 388.601 21.382,388.649 24.512,388.708 20.687 C 388.766 16.861,388.766 10.601,388.708 6.775 C 388.649 2.949,388.601 6.079,388.601 13.731 M399.458 13.911 C 399.458 21.563,399.580 27.823,399.729 27.823 C 399.878 27.823,400.000 21.563,400.000 13.911 C 400.000 6.260,399.878 0.000,399.729 0.000 C 399.580 0.000,399.458 6.260,399.458 13.911 M352.299 12.918 C 352.296 19.426,352.196 25.117,352.076 25.565 C 351.831 26.477,335.682 26.901,335.682 25.995 C 335.682 25.784,335.845 25.713,336.043 25.836 C 336.242 25.958,336.405 25.904,336.405 25.715 C 336.405 25.526,336.181 25.285,335.907 25.180 C 335.499 25.023,335.397 22.816,335.345 13.036 L 335.282 1.084 343.793 1.084 L 352.304 1.084 352.299 12.918 M27.109 28.436 C 26.100 29.719,26.092 66.827,27.100 68.824 C 28.177 70.957,25.066 70.844,80.578 70.764 C 131.664 70.691,133.333 70.724,133.333 71.828 C 133.343 228.377,133.539 278.590,134.144 279.195 C 134.583 279.634,134.888 279.710,135.153 279.445 C 135.418 279.181,135.364 278.926,134.975 278.603 C 134.475 278.189,134.417 267.502,134.417 175.024 L 134.417 71.906 133.663 71.152 C 131.833 69.322,134.166 69.390,80.171 69.598 C 38.752 69.758,29.656 69.708,28.941 69.314 C 26.985 68.236,26.919 67.536,26.925 47.791 L 26.931 29.638 27.747 28.821 C 28.403 28.164,29.111 27.962,31.355 27.792 L 34.146 27.581 31.011 27.521 C 28.004 27.464,27.844 27.501,27.109 28.436 M108.311 27.733 C 148.704 27.783,214.801 27.783,255.194 27.733 C 295.587 27.682,262.538 27.641,181.752 27.641 C 100.967 27.641,67.918 27.682,108.311 27.733 M178.066 69.828 C 177.698 70.480,177.584 91.230,177.495 174.345 L 177.383 278.049 176.406 278.860 L 175.429 279.671 176.379 279.673 C 176.901 279.674,177.509 279.457,177.730 279.190 C 178.024 278.836,178.158 250.483,178.226 174.734 C 178.319 71.241,178.323 70.761,179.042 70.220 C 179.815 69.638,395.417 69.689,396.825 70.272 C 397.805 70.677,397.783 69.498,397.716 118.235 C 397.659 159.370,397.588 164.808,397.100 165.295 C 396.612 165.784,390.059 165.847,338.864 165.858 C 284.767 165.870,281.132 165.909,280.424 166.494 L 279.669 167.118 279.582 263.595 C 279.534 316.658,279.355 360.357,279.184 360.705 C 278.943 361.198,279.032 361.337,279.587 361.337 C 280.764 361.337,280.759 361.786,280.759 262.633 L 280.759 167.281 281.645 166.944 C 282.180 166.741,305.319 166.603,339.911 166.598 L 397.290 166.589 397.922 165.820 C 398.729 164.839,398.921 72.428,398.121 70.215 L 397.687 69.015 288.106 69.015 L 178.526 69.015 178.066 69.828 M255.065 99.166 C 254.984 99.247,244.388 99.382,231.517 99.467 C 218.647 99.552,208.013 99.726,207.885 99.853 C 207.758 99.981,242.946 100.087,286.081 100.089 C 361.922 100.092,366.408 100.138,367.389 100.908 C 367.911 101.317,368.055 134.966,367.539 135.779 C 366.336 137.675,366.502 137.669,309.239 137.669 C 275.642 137.669,255.895 137.799,255.307 138.022 L 254.380 138.375 254.462 234.770 C 254.515 295.736,254.652 326.650,254.836 318.880 C 254.996 312.123,255.200 268.954,255.290 222.949 C 255.381 176.943,255.533 139.098,255.629 138.847 C 255.769 138.484,266.532 138.388,308.841 138.373 C 364.407 138.353,366.278 138.303,367.779 136.803 C 368.388 136.193,368.947 103.520,368.387 101.253 C 367.791 98.845,371.968 99.006,310.533 99.013 C 280.106 99.016,255.145 99.085,255.065 99.166 M253.659 332.438 C 252.636 333.229,239.491 333.546,239.024 332.791 C 238.686 332.244,180.189 332.299,179.128 332.847 C 178.683 333.077,178.076 333.378,177.778 333.517 C 177.480 333.655,177.179 334.156,177.109 334.629 L 176.983 335.490 177.651 334.683 L 178.320 333.876 216.378 333.833 C 256.393 333.787,255.026 333.842,254.683 332.287 C 254.581 331.825,254.421 331.849,253.659 332.438 M106.847 332.524 C 107.006 332.771,107.221 339.395,107.325 347.245 L 107.514 361.518 107.596 347.012 C 107.669 334.187,107.613 332.482,107.118 332.292 C 106.730 332.144,106.647 332.215,106.847 332.524 M119.410 332.354 C 115.631 332.509,115.828 331.765,115.703 346.341 C 115.645 353.098,115.726 359.244,115.884 359.998 C 116.044 360.764,116.170 355.393,116.170 347.816 C 116.170 335.688,116.233 334.201,116.768 333.665 C 117.371 333.062,122.025 332.336,122.216 332.816 C 122.365 333.188,123.939 333.602,123.933 333.267 C 123.914 332.245,123.597 332.182,119.410 332.354 M132.791 333.435 C 132.041 334.454,131.618 360.466,132.340 361.187 C 132.798 361.645,132.801 361.509,132.604 348.509 C 132.459 339.011,132.522 335.570,132.854 334.688 L 133.296 333.514 140.017 333.514 L 146.738 333.514 147.248 334.688 C 147.643 335.598,147.762 335.691,147.773 335.102 C 147.780 334.684,147.388 333.912,146.901 333.386 L 146.015 332.430 139.764 332.441 L 133.514 332.453 132.791 333.435 M103.568 334.282 C 103.444 334.903,103.379 341.285,103.424 348.464 L 103.506 361.518 103.695 347.967 C 103.799 340.515,104.024 334.133,104.194 333.785 C 104.382 333.402,104.364 333.153,104.149 333.153 C 103.954 333.153,103.692 333.661,103.568 334.282 M155.233 335.170 C 154.956 335.891,154.942 360.007,155.218 360.726 C 155.383 361.156,155.601 361.092,156.355 360.394 C 157.276 359.541,157.379 359.530,164.784 359.530 C 171.286 359.530,172.309 359.454,172.500 358.959 C 172.890 357.941,172.747 336.048,172.345 335.297 C 171.822 334.320,155.605 334.199,155.233 335.170 M171.816 346.883 L 171.816 358.266 163.776 358.363 L 155.736 358.460 155.736 346.883 L 155.736 335.307 163.776 335.404 L 171.816 335.501 171.816 346.883 M147.225 359.691 C 147.089 360.416,147.059 361.091,147.158 361.190 C 147.257 361.289,147.450 360.777,147.586 360.052 C 147.722 359.327,147.752 358.652,147.653 358.553 C 147.553 358.454,147.361 358.966,147.225 359.691 M177.091 359.982 C 177.071 360.727,177.218 361.337,177.416 361.337 C 177.830 361.337,177.830 360.822,177.416 359.530 C 177.158 358.724,177.123 358.773,177.091 359.982 " stroke="none" fill="#723b50" fill-rule="evenodd"></path></g></svg>