<?xml version="1.0" standalone="yes"?>
<svg xmlns="http://www.w3.org/2000/svg" width="828" height="748">
<path style="fill:#010101; stroke:none;" d="M0 0L0 199L160 199L200 199C204.777 199 212.589 197.6 216.566 200.858C221.694 205.059 219 219.979 219 226L219 300L219 544L219 607C219 612.468 216.538 625.991 220.028 630.397C222.147 633.073 228.02 632 231 632L260 632L381 632L415 632C418.189 632 424.661 633.209 426.397 629.682C430.404 621.538 427 604.078 427 595L427 510L427 205C507.704 205 588.274 206 669 206L733 206C739.208 206 752.404 203.506 757.682 207.028C761.714 209.718 760 218.836 760 223L760 268C760 272.799 762.047 283.005 755.941 284.682C749.15 286.547 740.028 285 733 285L685 285L528 285L529 690L368 690L368 748L581 748L581 448L581 373C581 367.068 578.197 351.009 582.603 346.603C585.87 343.337 594.759 345 599 345L645 345L828 345L828 146L367 146L367 470L367 551C367 557.453 370.007 574.545 365.258 579.397C361.377 583.361 348.204 581 343 581L279 581L279 146L125 146L81 146C75.1235 146 66.5555 147.558 61.0586 145.258C54.7419 142.615 57 131.486 57 126L57 74C57 69.0204 55.0575 59.0419 60.1481 56.0278C63.7724 53.8819 69.9489 55 74 55L107 55L228 55L678 55L678 0L0 0z"/>
<path style="fill:#323232; stroke:none;" d="M678 0L678 55L224 55L104 55L72 55C68.3821 55 62.4798 53.9178 59.3179 56.0278C54.7014 59.1083 57 72.121 57 77L57 121C57 128.722 55.8025 137.565 58 145L59 145C54.1241 124.52 58 99.0521 58 78C58 73.121 55.7014 60.1083 60.3179 57.0278C67.2762 52.3845 86.6981 56 95 56L186 56L533 56L643 56L669 56C671.803 55.9998 676.975 56.9181 678.972 54.3966C681.423 51.3018 680 43.7311 680 40L680 0L678 0z"/>
<path style="fill:#010101; stroke:none;" d="M680 0L680 59L61 59L61 142L221 142L263 142C267.426 142 275.769 140.414 279.566 143.028C284.907 146.703 282 164.173 282 170L282 249L282 577L363 577L363 290L363 197L364 142L828 142L828 59L818 59L818 0L807 0L807 42L805.397 57.3966L787 59L787 0L773 0L773 59L745 59L745 0L733 0L733 59L702 59L689.434 57.3966L687 42L687 0L680 0z"/>
<path style="fill:#ededed; stroke:none;" d="M687 0L687 43C687 47.0874 685.499 55.2642 689.434 57.9722C692.519 60.0961 698.443 59 702 59L733 59L733 57L702 57C698.497 57 692.337 58.1305 689.603 55.3966C686.463 52.256 688 44.062 688 40C688 28.58 691.408 10.5037 687 0z"/>
<path style="fill:#9e9e9e; stroke:none;" d="M688 0C688 17.3908 684.077 40.3458 689 57L690 57C685.829 39.4815 694.889 16.4167 688 0z"/>
<path style="fill:#010101; stroke:none;" d="M689 0L689 40L690.603 53.9722L711 55L730.972 53.3966L732 39L732 0L689 0z"/>
<path style="fill:#323232; stroke:none;" d="M732 0L732 39L730.397 53.3966L719 55L689 54C693.772 59.4605 714.82 56.0005 722 56C724.803 55.9998 729.975 56.918 731.972 54.3966C734.301 51.4567 733 44.5311 733 41C733 29.3181 736.508 10.7418 732 0z"/>
<path style="fill:#ededed; stroke:none;" d="M745 0L745 59L773 59L773 57L746 57L746 18L745 0z"/>
<path style="fill:#323232; stroke:none;" d="M746 0L746 38C746 42.4044 744.623 49.6566 746.603 53.6821C748.528 57.593 769.342 57.7177 771.972 54.3966C774.423 51.3018 773 43.7312 773 40L773 0L772 0L772 39C772 42.8801 773.407 50.386 770.397 53.3966C766.306 57.4871 752.477 55 747 55L747 18L746 0z"/>
<path style="fill:#010101; stroke:none;" d="M747 0L747 55L770.397 53.9722L772 40L772 0L747 0z"/>
<path style="fill:#ededed; stroke:none;" d="M787 0L787 59L807 58L807 57L788 57L788 18L787 0z"/>
<path style="fill:#323232; stroke:none;" d="M788 0L788 41C788 44.4756 786.522 52.5317 789.603 54.9722C793.291 57.8926 805.304 56.9614 806.682 51.9413C810.815 36.8925 807 15.6417 807 0L805 0L805 55L789 55L789 18L788 0z"/>
<path style="fill:#010101; stroke:none;" d="M789 0L789 55L805 55L805 0L789 0z"/>
<path style="fill:#ededed; stroke:none;" d="M818 0L818 59L828 59L828 57L819 57L819 18L818 0z"/>
<path style="fill:#323232; stroke:none;" d="M819 0L819 40L820.028 54.3966L828 56L828 55L820 55L820 18L819 0z"/>
<path style="fill:#010101; stroke:none;" d="M820 0L820 55L828 55L828 0L820 0z"/>
<path style="fill:#5d5d5d; stroke:none;" d="M806 54L805 56L807 56L806 54M679 55L680 56L679 55M732 55L733 56L732 55M746 55L746 56L771 57L771 56L746 55M772 55L773 56L772 55M788 55L788 56L804 57L804 56L788 55M819 55L819 56L828 57L828 56L819 55M279 145L279 579L280 579L280 252L280 172C280 166.62 282.846 148.552 278.397 145.028C275.15 142.456 266.929 144 263 144L221 144L59 144L59 79C59 73.0676 56.5294 60.5466 62 57C55.7705 55.6008 58 71.103 58 75L58 126C58 130.087 56.0613 141.167 59.6034 143.972C62.8503 146.544 71.0709 145 75 145L117 145L279 145z"/>
<path style="fill:#9e9e9e; stroke:none;" d="M62 56L63 57L62 56z"/>
<path style="fill:#5d5d5d; stroke:none;" d="M63 56L63 57L678 57L661 56L625 56L499 56L63 56z"/>
<path style="fill:#9e9e9e; stroke:none;" d="M678.667 56.3333L679.333 56.6667L678.667 56.3333z"/>
<path style="fill:#5d5d5d; stroke:none;" d="M690 56L690 57L731 57C720.25 52.4891 701.696 56 690 56z"/>
<path style="fill:#9e9e9e; stroke:none;" d="M731.667 56.3333L732.333 56.6667L731.667 56.3333M746 56L747 57L746 56M771.667 56.3333L772.333 56.6667L771.667 56.3333M788 56L789 57L788 56M804 56L804 57L807 57L804 56M819 56L820 57L819 56M59 57L59 60L60 60L59 57z"/>
<path style="fill:#ededed; stroke:none;" d="M60 57L59 121L60.6034 141.972L76 143L118 143L280 143L281 198L281 291L281 579L365 579L365 254L365 173C365 166.74 361.983 149.224 366.603 144.603C371.437 139.77 390.413 143 397 143L483 143L828 143L828 142L364 142L363 192L363 285L363 577L282 577L282 250L282 170C282 164.446 284.865 146.756 280.258 143.028C277.078 140.456 268.871 142 265 142L223 142L61 142L61 59L680 59L680 57L60 57z"/>
<path style="fill:#9e9e9e; stroke:none;" d="M59 142C62.0858 145.531 69.5893 144 74 144L115 144L225 144C242.393 144 263.066 140.968 280 145C276.914 141.469 269.411 143 265 143L224 143L114 143C96.6074 143 75.9341 146.032 59 142M365 144L365 145L415 144L513 144L828 144C818.211 139.892 801.634 143 791 143L705 143L471 143L400 143C389.045 143 375.522 140.89 365 144z"/>
<path style="fill:#5d5d5d; stroke:none;" d="M365 580L366 580L366 145L828 145C819.404 141.393 805.322 144 796 144L724 144L473 144L393 144C387.62 144 369.552 141.154 366.028 145.603C361.873 150.849 365 168.401 365 175L365 258L365 580z"/>
<path style="fill:#323232; stroke:none;" d="M60 145L60 146L279 146L258 145L214 145L60 145M366 145L366 579L367 579L367 146L828 146C817.258 141.492 798.682 145 787 145L693 145L366 145z"/>
<path style="fill:#9e9e9e; stroke:none;" d="M280 146L280 580L365 580L365 579L281 579L281 273L281 184C281 173.104 284.208 156.027 280 146z"/>
<path style="fill:#323232; stroke:none;" d="M0 199L0 200L162 200L201 200C205.481 200 212.917 198.731 216.258 202.514C220.283 207.072 218 219.277 218 225L218 288L218 534L218 607C218 612.09 215.355 628.456 219.603 631.821C225.433 636.438 244.683 633 252 633L340 633L398 633C407.195 633 418.158 634.614 427 632C411.277 629.546 393.009 632 377 632L274 632L235 632C231.12 632 223.614 633.407 220.603 630.397C216.636 626.429 219 613.269 219 608L219 545L219 293L219 225C219 219.403 221.563 205.004 217.258 200.858C213.901 197.626 206.238 199 202 199L162 199L0 199z"/>
<path style="fill:#5d5d5d; stroke:none;" d="M0 200L0 201L161 201L201 201C205.298 201 212.22 199.778 215.397 203.434C219.312 207.939 217 220.34 217 226L217 289L217 534L217 608C217 614.338 214.212 629.248 220 633C215.788 625.427 218 613.473 218 605L218 541L218 306L218 229C218 222.917 220.889 206.318 216.258 201.858C212.901 198.626 205.238 200 201 200L161 200L0 200z"/>
<path style="fill:#9e9e9e; stroke:none;" d="M0 201L0 203L160 203L200 203C203.629 203 211.301 201.576 214.088 204.434C217.356 207.785 215 221.444 215 226L215 288L215 536L215 609C215 614.418 212.399 629.507 217.434 632.972C221.057 635.466 228.788 634 233 634L274 634L428 634C415.831 628.893 394.253 633 381 633L270 633L231 633C227.309 633 220.431 634.284 218.028 630.682C214.506 625.404 217 612.208 217 606L217 543L217 302L217 228C217 222.305 219.688 206.943 215.397 202.742C212.117 199.531 204.185 201 200 201L160 201L0 201z"/>
<path style="fill:#ededed; stroke:none;" d="M0 203L0 206L213 206L213 529L213 608C213 613.239 210.251 630.525 214.603 633.972C217.85 636.544 226.071 635 230 635L271 635L429 635L429 208L757 209L757 282L526 282L526 687L366 687L366 748L367 748L367 688L528 688L527 283L758 283L758 208L428 207L428 634L272 634L233 634C228.663 634 220.957 635.458 217.434 632.397C212.664 628.252 215 615.705 215 610L215 548L215 295L215 227C215 222.516 217.485 207.046 214.168 204.028C211.425 201.532 203.463 203 200 203L159 203L0 203z"/>
<path style="fill:#323232; stroke:none;" d="M427 205L427 207L429 205L427 205z"/>
<path style="fill:#5d5d5d; stroke:none;" d="M429 205L429 206L526 206L496 205L429 205z"/>
<path style="fill:#323232; stroke:none;" d="M526.667 205.333L527.333 205.667L526.667 205.333z"/>
<path style="fill:#010101; stroke:none;" d="M0 206L0 748L213 748L213 701C213 696.283 211.652 686.663 218.996 687.207C225.565 687.693 224 696.446 224 701L224 748L237 748L237 687L258 687L258 748L271 748L272 687L338 687C343.436 687 357.318 684.525 361.397 688.603C364.537 691.744 363 699.938 363 704L363 748L366 748L366 687L526 687L526 282L757 282L757 209L429 208L429 635L269 635L229 635C225.12 635 217.614 636.407 214.603 633.397C210.09 628.883 213 612.097 213 606L213 526L213 206L0 206z"/>
<path style="fill:#9e9e9e; stroke:none;" d="M428 206L428 207L758 208L758 283L585 283L542 283L527 285C544.525 280.828 565.997 284 584 284L700 284L743 284C746.633 284 755.435 285.6 757.972 282.397C761.124 278.418 759 266.897 759 262L759 207L428 206z"/>
<path style="fill:#5d5d5d; stroke:none;" d="M528 206L528 207L758 207L737 206L690 206L528 206z"/>
<path style="fill:#323232; stroke:none;" d="M758 206L759 207L758 206z"/>
<path style="fill:#5d5d5d; stroke:none;" d="M427 207L427 496L427 587L426 633C430.659 628.929 428 613.985 428 608L428 534L428 303L428 236C428 227.466 430.306 214.879 427 207z"/>
<path style="fill:#323232; stroke:none;" d="M759 207L759 284L528 284L528 285L698 285L742 285L758.397 283.972L760 266L760 226L759 207z"/>
<path style="fill:#5d5d5d; stroke:none;" d="M758 283L759 284L758 283M527 285L527 632L528 632L528 387L528 316L527 285z"/>
<path style="fill:#323232; stroke:none;" d="M581 748L582 748L582 346L828 346L810 345L772 345L639 345L597 345L582.028 346.603L581 374L581 451L581 748z"/>
<path style="fill:#5d5d5d; stroke:none;" d="M582.333 346.667L582.667 347.333L582.333 346.667z"/>
<path style="fill:#9e9e9e; stroke:none;" d="M583 346L583 347L828 347L805 346L756 346L583 346z"/>
<path style="fill:#ededed; stroke:none;" d="M583 347L583 748L585 748L585 349L828 349L828 347L583 347z"/>
<path style="fill:#9e9e9e; stroke:none;" d="M582 348L582 748L583 748L583 465L583 383L582 348z"/>
<path style="fill:#010101; stroke:none;" d="M585 349L585 748L828 748L828 349L585 349z"/>
<path style="fill:#323232; stroke:none;" d="M279 579C282.796 583.344 295.473 581 301 581L366 581L366 580L310 580L279 579z"/>
<path style="fill:#9e9e9e; stroke:none;" d="M527.333 632.667L527.667 633.333L527.333 632.667z"/>
<path style="fill:#323232; stroke:none;" d="M528 632L529 633L528 632z"/>
<path style="fill:#5d5d5d; stroke:none;" d="M528 633L528 689L529 689L529 651L528 633z"/>
<path style="fill:#ededed; stroke:none;" d="M272 689C278.465 687.461 301.419 684.625 306.397 689.603C309.537 692.744 308 700.938 308 705L308 748L309 748L309 690L362 688L362 748C367.007 736.068 363 714.991 363 702C363 698.524 364.478 690.468 361.397 688.028C358.779 685.954 353.122 687 350 687C340.433 687 330.526 687.737 321 686.83C309.063 685.694 297.042 687 285 687C280.932 687 274.848 685.741 272 689M213 748L215 748L215 702C215 698.653 213.821 688.03 219.871 688.921C224.615 689.62 223 699.764 223 703L223 748C228.406 735.118 224.001 712.038 224 698C224 692.866 223.577 683.491 215.434 687.603C211.291 689.695 213 699.204 213 703L213 748M237 689L257 688L257 748L258 748L258 687C252.594 687 240.71 684.755 237 689z"/>
<path style="fill:#9e9e9e; stroke:none;" d="M215 748L217 748L217 704C217 698.088 215.458 691.405 222 689L222 748C227.107 735.83 223 714.253 223 701C223 697.79 224.486 686.427 218.129 688.662C213.383 690.331 215 699.156 215 703L215 748M237 689L237 690L257 690C253.469 685.96 241.789 687.585 237 689M272 689L272 690C282.38 687.529 297.62 687.529 308 690C301.504 685.078 279.708 686.722 272 689M318 688L318 689L362 689C350.537 684.19 330.48 688 318 688M367 688L367 689L528 689C515.593 683.794 493.515 688 480 688L367 688z"/>
<path style="fill:#5d5d5d; stroke:none;" d="M219 689L219 690L222 690L219 689M238 689C232.913 706.211 237 730.025 237 748L238 748L238 707L240 690L238 689z"/>
<path style="fill:#323232; stroke:none;" d="M240 689L240 690L255 690L240 689z"/>
<path style="fill:#5d5d5d; stroke:none;" d="M255 689C259.314 707.119 256 729.384 256 748L257 748L257 706L255 689M273 689C267.913 706.211 272 730.025 272 748L273 748L273 707L275 690L273 689z"/>
<path style="fill:#323232; stroke:none;" d="M275 689L275 690L306 690L275 689z"/>
<path style="fill:#5d5d5d; stroke:none;" d="M306 689C310.314 707.119 307 729.384 307 748L308 748L308 706L306 689M318.667 689.333L319.333 689.667L318.667 689.333z"/>
<path style="fill:#323232; stroke:none;" d="M320 689L320 690L360 690C349.488 685.589 331.434 689 320 689z"/>
<path style="fill:#5d5d5d; stroke:none;" d="M360 689L362 691L362 689L360 689M367.667 689.333L368.333 689.667L367.667 689.333z"/>
<path style="fill:#323232; stroke:none;" d="M369 689L369 690L529 690C516.593 684.794 494.515 689 481 689L369 689z"/>
<path style="fill:#5d5d5d; stroke:none;" d="M217 690L217 748L218 748L218 709L217 690z"/>
<path style="fill:#010101; stroke:none;" d="M218 690C222.243 707.823 219 729.689 219 748L222 748L222 705C222 699.878 223.857 691.944 218 690z"/>
<path style="fill:#323232; stroke:none;" d="M221 690L222 691L221 690M238 690L238 748L239 748L239 709L238 690z"/>
<path style="fill:#010101; stroke:none;" d="M239 690L239 748L256 748L256 690L239 690z"/>
<path style="fill:#323232; stroke:none;" d="M273 690L273 748L274 748L274 709L273 690z"/>
<path style="fill:#010101; stroke:none;" d="M274 690L274 748L307 748L307 690L274 690M309 690L309 748L317 748L317 690L309 690z"/>
<path style="fill:#9e9e9e; stroke:none;" d="M317 690L317 748L318 748L318 709L317 690z"/>
<path style="fill:#323232; stroke:none;" d="M318 690L318 748L319 748L319 709L318 690z"/>
<path style="fill:#010101; stroke:none;" d="M319 690L319 748L361 748L361 690L319 690z"/>
<path style="fill:#323232; stroke:none;" d="M367 690L367 748L368 748L368 709L367 690z"/>
<path style="fill:#ededed; stroke:none;" d="M218 691L218 744L219 744L219 708L218 691M271 691L271 748L272 748L272 709L271 691z"/>
<path style="fill:#323232; stroke:none;" d="M361 691L361 748L362 748L362 709L361 691M218 744L218 748L219 748L218 744z"/>
</svg>
